<?xml version="1.0" encoding="UTF-8"?>
<svg width="44px" height="44px" viewBox="0 0 44 44" version="1.1" xmlns="http://www.w3.org/2000/svg" xmlns:xlink="http://www.w3.org/1999/xlink">
    <!-- Generator: sketchtool 52.6 (67491) - http://www.bohemiancoding.com/sketch -->
    <title>3998182D-426D-42D9-ADA1-EB56CB7F032B</title>
    <desc>Created with sketchtool.</desc>
    <g id="Page-1" stroke="none" stroke-width="1" fill="none" fill-rule="evenodd">
        <g id="190111_corpwebs_about" transform="translate(-260.000000, -829.000000)">
            <g id="Group" transform="translate(136.000000, 446.000000)">
                <g id="icColleagues" transform="translate(124.000000, 383.000000)">
                    <rect id="Rectangle" fill="#014899" fill-rule="nonzero" x="0" y="0" width="43.2" height="43.2" rx="4.32"></rect>
                    <path d="M29.6969775,24.1980903 C29.6969775,26.7194344 29.6978867,29.201511 29.6960683,31.685414 C29.6960683,31.8525295 29.7006142,32.024211 29.6615191,32.1849342 C29.5160489,32.7821667 28.9732633,33.1803218 28.4277502,33.1100054 C27.7794987,33.025991 27.3485433,32.5712176 27.3421789,31.9146271 C27.3312687,30.6187968 27.3385422,29.3229666 27.3385422,28.0289627 C27.3385422,24.4318694 27.3330871,20.8356892 27.3476341,17.2395091 C27.3485433,16.8970593 27.2439866,16.7317701 26.9394084,16.5920506 C25.882022,16.104402 24.8391827,15.578399 23.7845239,15.0807052 C23.3499317,14.8752353 23.0508087,14.5693134 22.8753352,14.1172796 C22.6007603,13.4104631 22.3016372,12.714605 21.9661466,11.9000309 C21.7552149,12.4013775 21.5379188,12.7958798 21.4206335,13.2186912 C21.1033266,14.3611039 20.4187076,15.0925768 19.2940413,15.4980374 C18.4857726,15.7884349 17.7411471,16.2523403 16.9546989,16.6066618 C16.6601218,16.7399889 16.5746581,16.9080177 16.5746581,17.2239847 C16.5846592,22.0858595 16.58375,26.9468211 16.5801132,31.8086959 C16.5801132,32.7639027 15.7991202,33.3520033 14.9744861,33.0323834 C14.5044356,32.8515699 14.2244055,32.3967965 14.2244055,31.7904319 C14.2225871,29.4288977 14.2234963,27.0664503 14.2234963,24.7049161 L14.2234963,24.2227467 C13.7870858,24.0455859 13.8616393,24.3487682 13.8616393,24.5578909 C13.8589117,26.6600765 13.8598209,28.7640884 13.8598209,30.8662739 C13.8598209,31.2014182 13.8625484,31.5374756 13.8598209,31.8726199 C13.8525474,32.6022664 13.3824969,33.1017866 12.6896951,33.117311 C11.9878015,33.1346618 11.4832018,32.6205304 11.4832018,31.8680539 C11.4804743,27.0070923 11.4813834,22.1452175 11.4786559,17.2842559 C11.4786559,17.1089216 11.4377424,16.9335873 11.4168311,16.7582529 C11.3640981,16.7518605 11.3113652,16.7454681 11.2586322,16.7381625 C11.1886247,16.8924933 11.1095253,17.0431712 11.0449729,17.2002415 C10.303075,18.9974184 9.57390572,20.7991613 8.81564241,22.5890325 C8.71108572,22.8346832 8.50288153,23.1323863 8.27831194,23.2045291 C8.03919533,23.282151 7.67461069,23.1908311 7.45458705,23.0419795 C7.15091805,22.8374228 7.15000886,22.4712298 7.29002391,22.1296931 C7.67642907,21.1890975 8.06283423,20.2475887 8.45014859,19.3069931 C8.94201963,18.1134412 9.43389067,16.9208025 9.92848928,15.7281637 C10.2848912,14.8688429 10.7403947,14.562921 11.6759498,14.5610946 C12.9815447,14.558355 14.2862303,14.5428306 15.5900068,14.567487 C16.2528053,14.5802718 16.8765087,14.4907783 17.4929386,14.2369088 C18.1621014,13.9592961 19.0140112,13.9035909 19.4922444,13.4424251 C19.9841154,12.9684745 20.1232213,12.1237648 20.4132525,11.4397783 C20.5259919,11.1749504 20.6287302,10.9037301 20.7496523,10.642555 C20.96513,10.1777364 21.2806184,10.0297981 21.7779446,10.1311633 C21.890684,10.1539932 22.016152,10.1585592 22.1288914,10.1357293 C22.6680402,10.0288849 22.9862563,10.185042 23.2071891,10.7092186 C23.5544991,11.5347511 23.8799887,12.3712419 24.2418457,13.190382 C24.31549,13.3593239 24.493691,13.5319187 24.6637093,13.5967558 C25.4692504,13.9081569 26.2847926,14.1894224 27.1021531,14.4642955 C27.2976287,14.5291326 27.515834,14.5547022 27.723129,14.5565286 C29.2251086,14.5638342 30.7270882,14.558355 32.2290678,14.5610946 C33.1900802,14.562921 33.632855,14.8615373 34.0028948,15.7564729 C34.8693515,17.8467869 35.7321715,19.938014 36.5977191,22.028328 C36.7413709,22.3735174 36.8104692,22.7534085 36.5058911,22.9990592 C36.3022328,23.1652615 35.9340114,23.2848906 35.7012591,23.2164007 C35.4621425,23.1460843 35.2202983,22.8538604 35.1130141,22.6009041 C34.3502048,20.8137725 33.6210356,19.0111164 32.8800468,17.2139395 C32.818222,17.0632616 32.7463961,16.9153233 32.678207,16.7664717 C32.6327475,16.7591661 32.5891065,16.7527737 32.543647,16.7454681 C32.5090979,16.8906669 32.4445455,17.0349524 32.4436363,17.1783248 C32.4363628,18.5956106 32.4399995,20.0128964 32.4399995,21.4301822 C32.4399995,24.9049068 32.4418179,28.3787181 32.4390904,31.8543559 C32.4381812,32.7803403 31.719013,33.3072565 30.8452827,33.0378626 C30.3434106,32.8817055 30.0615621,32.4579809 30.0615621,31.8406579 C30.0597437,29.4179393 30.0615621,26.9952207 30.0597437,24.5715889 C30.0597437,24.361553 30.1315696,24.0766347 29.6969775,24.1980903 Z M14.0072913,10.0800241 C15.1583241,10.0745449 16.0947883,11.0050953 16.0993343,12.1557268 C16.102971,13.3008791 15.1565057,14.246954 14.0145648,14.2396484 C12.882625,14.2323428 11.9597985,13.3154903 11.947979,12.1849492 C11.937978,11.0306649 12.8617136,10.0855033 14.0072913,10.0800241 Z M31.9726766,12.1633064 C31.9708582,13.3148511 31.0289388,14.2499675 29.8824519,14.2399223 C28.7532397,14.2289639 27.8367776,13.3121115 27.8231397,12.1760912 C27.8095019,11.0327652 28.7459662,10.0830376 29.892453,10.080298 C31.0425766,10.0775584 31.974495,11.0108485 31.9726766,12.1633064 Z" id="Combined-Shape" fill="#FFFFFF" fill-rule="evenodd"></path>
                </g>
            </g>
        </g>
    </g>
</svg>