<?xml version="1.0" encoding="UTF-8"?>
<svg width="44px" height="44px" viewBox="0 0 44 44" version="1.1" xmlns="http://www.w3.org/2000/svg" xmlns:xlink="http://www.w3.org/1999/xlink">
    <!-- Generator: sketchtool 52.6 (67491) - http://www.bohemiancoding.com/sketch -->
    <title>81E5F7A0-55A6-4C53-9686-9F9EA7FDF8F1</title>
    <desc>Created with sketchtool.</desc>
    <g id="Page-1" stroke="none" stroke-width="1" fill="none" fill-rule="evenodd">
        <g id="190111_corpwebs_about" transform="translate(-873.000000, -478.000000)">
            <g id="Group" transform="translate(136.000000, 446.000000)">
                <g id="icDeliveriesEveryMinute" transform="translate(737.000000, 32.000000)">
                    <rect id="Rectangle" fill="#014899" fill-rule="nonzero" x="0" y="0" width="43.2" height="43.2" rx="4.32"></rect>
                    <path d="M21.9269308,24.9140532 L21.9391285,24.9140532 C22.2806626,25.5712041 22.6923332,26.1764222 23.182272,26.6458157 L25.6441638,29.0706828 C25.7336132,29.1875319 25.8413591,29.4461977 25.8657544,29.5880145 L25.8657544,31.3727086 C25.0942532,31.6133977 23.7433638,31.8650725 21.9330296,31.8650725 C20.1226955,31.8650725 18.7718061,31.6133977 18.0013214,31.3727086 L18.0013214,29.5880145 C18.0257167,29.4461977 18.1375285,29.1875319 18.2208791,29.0706828 L20.6848038,26.6458157 C21.1737261,26.1704299 21.5864132,25.5712041 21.9269308,24.9140532 Z M24.5683313,17.5978057 L27.0718984,15.143976 C27.4622231,14.7674625 27.8383172,13.8696225 27.8383172,13.3293205 L27.8383172,12.7950108 C26.2658372,13.4231992 24.1017713,13.7168199 21.9387219,13.7168199 C19.774656,13.7168199 17.6116066,13.4231992 16.0411595,12.7950108 L16.0411595,13.3293205 C16.0411595,13.8696225 16.422336,14.7674625 16.8055454,15.143976 L19.3030136,17.5978057 C20.1283878,18.4077592 20.7545336,19.8998315 20.7545336,21.0493463 L20.7545336,21.8253437 C20.7545336,22.9758573 20.1283878,24.4669308 19.3030136,25.2778831 L16.7994466,27.737705 C16.4121713,28.1132199 16.0340442,29.0120586 16.0340442,29.5523605 L16.0340442,32.5524844 C16.3867595,32.945976 18.4186842,33.8028689 21.9326231,33.8028689 C25.4465619,33.8028689 27.4784866,32.945976 27.8312019,32.5524844 L27.8312019,29.5523605 C27.8312019,29.0120586 27.4551078,28.1132199 27.0718984,27.737705 L24.5683313,25.2778831 C23.7429572,24.4669308 23.1157948,22.9758573 23.1157948,21.8253437 L23.1157948,21.0493463 C23.1157948,19.8998315 23.7429572,18.4077592 24.5683313,17.5978057 Z M21.9326231,9.07781342 C18.6697525,9.07781342 16.698816,9.81186503 16.1489054,10.2353179 C16.698816,10.6567734 18.6697525,11.390825 21.9326231,11.390825 C25.1954936,11.390825 27.1684631,10.6567734 27.7183736,10.2353179 C27.1684631,9.81186503 25.1954936,9.07781342 21.9326231,9.07781342 Z M26.2363595,19.2356895 C25.8480678,19.6112044 25.4709572,20.5100431 25.4709572,21.0493463 L25.4709572,21.8253437 C25.4709572,22.3656457 25.8541666,23.2644844 26.2363595,23.6390005 L28.7399266,26.0938289 C29.5642842,26.9037825 30.1914466,28.3958547 30.1914466,29.5463683 L30.1914466,32.6343786 C30.1914466,32.7172715 30.1853478,32.7991657 30.1680678,32.8760663 C29.8936207,35.1071837 25.9070231,36.1098883 21.9387219,36.1098883 C17.9724536,36.1098883 13.9848395,35.1071837 13.7103925,32.8760663 C13.6992113,32.7991657 13.6859972,32.7172715 13.6859972,32.6343786 L13.6859972,29.5463683 C13.6859972,28.3958547 14.3131595,26.9037825 15.1395501,26.0938289 L17.6370184,23.6390005 C18.0253101,23.2644844 18.4014042,22.3656457 18.4014042,21.8253437 L18.4014042,21.0493463 C18.4014042,20.5100431 18.0192113,19.6112044 17.6370184,19.2356895 L15.1334513,16.7758676 C14.3070607,15.9659141 13.6798984,14.4738418 13.6798984,13.3233283 L13.6798984,10.2353179 C13.6798984,10.1534237 13.6859972,10.0705308 13.7042936,9.99363019 C13.9787407,7.76251277 17.9653384,6.75880955 21.9326231,6.75880955 C25.9019407,6.75880955 29.8865054,7.76251277 30.1680678,9.99363019 C30.1802654,10.0705308 30.1914466,10.1534237 30.1914466,10.2353179 L30.1914466,13.3233283 C30.1914466,14.4738418 29.5642842,15.9659141 28.7399266,16.7758676 L26.2363595,19.2356895 Z" id="Combined-Shape" fill="#FFFFFF" fill-rule="evenodd"></path>
                </g>
            </g>
        </g>
    </g>
</svg>