<?xml version="1.0" encoding="UTF-8"?>
<svg width="44px" height="44px" viewBox="0 0 44 44" version="1.1" xmlns="http://www.w3.org/2000/svg" xmlns:xlink="http://www.w3.org/1999/xlink">
    <!-- Generator: sketchtool 52.6 (67491) - http://www.bohemiancoding.com/sketch -->
    <title>199B3F9F-95A5-4982-90F7-1E2FD70C1F7A</title>
    <desc>Created with sketchtool.</desc>
    <g id="Page-1" stroke="none" stroke-width="1" fill="none" fill-rule="evenodd">
        <g id="190111_corpwebs_about" transform="translate(-873.000000, -829.000000)">
            <g id="Group" transform="translate(136.000000, 446.000000)">
                <g id="icCoverage" transform="translate(737.000000, 383.000000)">
                    <rect id="Rectangle" fill="#014899" fill-rule="nonzero" x="0" y="0" width="43.2" height="43.2" rx="4.32"></rect>
                    <path d="M21.8304,9.703568 L21.8304,8.373568 C21.8304,8.122464 21.6333785,7.92 21.3896862,7.92 C21.1459938,7.92 20.9489723,8.122464 20.9489723,8.373568 L20.9489723,9.703872 C14.9154462,9.942816 10.08,15.064 10.08,21.331264 L10.08,21.39784 C10.08,21.40088 10.08,21.40696 10.08,21.41 C10.08,21.41304 10.08,21.41608 10.08,21.41912 C10.08,21.4252 10.08,21.42824 10.08,21.43128 C10.0829538,21.473536 10.0829538,21.524912 10.0977231,21.585408 C10.1476431,21.790912 10.3298954,21.930144 10.5266215,21.930144 C10.5617723,21.930144 10.5972185,21.924064 10.6323692,21.914944 C10.85568,21.860528 10.9936246,21.636784 10.9614277,21.41 C10.9673354,19.865072 12.3919754,18.610464 14.14272,18.610464 C15.8993723,18.610464 17.3269662,19.871152 17.3269662,21.41912 C17.3269662,21.66992 17.5236923,21.872688 17.76768,21.872688 C18.0084185,21.872688 18.2083938,21.670224 18.2083938,21.41912 C18.2083938,21.40088 18.20544,21.382944 18.20544,21.364704 C18.20544,21.352544 18.2083938,21.343424 18.2083938,21.331568 C18.2083938,19.913712 19.4041108,18.743616 20.9489723,18.553312 L20.9489723,29.28208 C20.8579938,29.387872 20.8021662,29.527104 20.8021662,29.678192 L20.8021662,32.102896 C20.8021662,33.188176 19.9443692,34.070992 18.8898462,34.070992 C17.8382769,34.070992 16.98048,33.188176 16.98048,32.102896 C16.98048,31.77032 16.7161108,31.49824 16.39296,31.49824 C16.0668554,31.49824 15.80544,31.77032 15.80544,32.102896 C15.80544,33.856064 17.1890215,35.28 18.8898462,35.28 C20.5936246,35.28 21.9772062,33.856064 21.9772062,32.102592 L21.9772062,29.677888 C21.9772062,29.5268 21.9213785,29.387568 21.8304,29.281776 L21.8304,18.552704 C23.3755569,18.743312 24.5709785,19.913104 24.5709785,21.33096 C24.5709785,21.58176 24.7677046,21.784528 25.0116923,21.784528 C25.0146462,21.784528 25.0146462,21.784528 25.0146462,21.784528 C25.2583385,21.784528 25.45536,21.582064 25.45536,21.33096 C25.45536,19.779952 26.88,18.519264 28.6336985,18.519264 C30.3903508,18.519264 31.8179446,19.779952 31.8179446,21.33096 C31.8179446,21.58176 32.0146708,21.784528 32.2586585,21.784528 C32.5026462,21.784528 32.6993723,21.582064 32.6993723,21.33096 C32.6990769,15.063696 27.8639262,9.942512 21.8304,9.703568 Z" fill="#FFFFFF" fill-rule="evenodd"></path>
                </g>
            </g>
        </g>
    </g>
</svg>