<?xml version="1.0" encoding="UTF-8"?>
<svg width="44px" height="44px" viewBox="0 0 44 44" version="1.1" xmlns="http://www.w3.org/2000/svg" xmlns:xlink="http://www.w3.org/1999/xlink">
    <!-- Generator: sketchtool 52.6 (67491) - http://www.bohemiancoding.com/sketch -->
    <title>03E1511D-F10C-417E-A664-3BE017A9C24D</title>
    <desc>Created with sketchtool.</desc>
    <g id="Page-1" stroke="none" stroke-width="1" fill="none" fill-rule="evenodd">
        <g id="190111_corpwebs_about" transform="translate(-873.000000, -653.000000)">
            <g id="icUK" transform="translate(873.000000, 653.000000)">
                <rect id="Rectangle" fill="#014899" fill-rule="nonzero" x="0" y="0" width="43.2" height="43.2" rx="4.32"></rect>
                <path d="M16.9448834,18.407621 L16.8133845,18.4525474 L16.5840314,18.5004872 L16.5809799,18.3626842 L16.5473387,18.2009148 L16.6360207,18.1170304 L16.7002548,17.9852268 L16.7155303,17.5208956 L16.8072849,17.3681321 L16.8164572,17.1853993 L16.8562014,17.080555 L16.9448834,16.942752 L16.9815655,16.8288949 L16.9479455,16.7360458 L16.8653667,16.6281915 L16.828674,16.4694286 L16.9754659,16.2717112 L16.9540486,16.1758522 L16.7705852,16.2896852 L16.8042052,16.1159377 L16.7155233,16.0859925 L16.7644609,16.0170927 L16.8103259,15.8882785 L16.9540486,15.7055457 C16.9153122,15.6785898 16.8765793,15.6516306 16.8378463,15.6246506 C16.9143044,15.6156654 16.9907378,15.6066766 17.0671959,15.5976914 L17.0763682,15.4718837 L17.1436504,15.2352151 L16.9723897,15.3280848 L17.0733166,15.0794416 L17.1222332,15.0105418 L17.0305032,14.9356634 L16.8976524,14.9895785 L16.8684359,15.163326 L16.8042017,15.1603366 L16.7919778,15.1034115 L16.8378428,15.067467 L16.8653632,14.9326534 L16.8408944,14.8637536 L16.843967,14.7469346 L16.9265247,14.7948745 L16.9999101,14.73496 L17.1222332,14.5671912 L17.0931887,14.4144277 L17.3301866,14.2616435 L17.3485347,13.9171413 L17.4310924,13.7523825 L17.510602,13.6205789 L17.5992839,13.5306951 L17.7338519,13.4198721 L17.8164096,13.3270024 L17.7307793,13.2311434 L17.889795,13.0394253 L17.9907219,12.9195963 L17.9448358,12.7428422 L17.9020435,12.8447006 L17.7888927,12.9615402 L17.6849143,13.0993432 L17.5595396,13.2610954 L17.3852274,13.3899097 L17.2445562,13.5546685 L17.0641443,13.6864721 L16.978514,13.848245 L16.8837113,14.0010291 L16.721644,14.0010291 L16.5565075,13.9530893 L16.3974918,13.9111454 L16.3118825,13.830271 L16.1559148,13.6864721 L16.1100498,13.572639 L16.4586533,13.4917646 L16.5656798,13.359961 L16.4831221,13.3060218 L16.3088099,13.3659363 L15.8011907,13.359961 L15.6330026,13.3240165 L15.6268819,13.261092 L15.706388,13.1832035 L15.8531799,13.1322743 L16.342451,13.0903545 L16.3791437,12.8866411 L16.6023725,12.8357119 L16.6207417,12.6350086 L16.3424545,12.6529791 L16.327158,12.482221 L16.3982679,12.3316866 L16.5152427,12.1564461 L16.6849583,12.2261061 L16.7560436,12.295742 L16.6138484,12.2710359 L16.5450387,12.318219 L16.5932037,12.4035963 L16.7308233,12.4058495 L16.9510006,12.4170674 L17.0633788,12.365402 L17.0496309,12.2845276 L16.8776187,12.3227047 L16.8317291,12.3025016 L16.886791,12.2665364 L16.8976629,12.1969005 L16.811109,12.1766767 L16.811109,12.0463661 L16.6689138,12.0441129 L16.5978039,12.0014328 L16.5519389,11.934026 L16.6711893,11.8149538 L16.7927609,11.722841 L16.8500983,11.7250701 L16.9395317,11.8014622 L17.0496309,11.8306712 L17.143661,11.8890927 L17.1734815,11.7924769 L17.0656824,11.7205878 L17.0014693,11.6441957 L16.9097147,11.6419459 L16.8225568,11.6060014 L16.7468748,11.5565651 L16.8523773,11.4801937 L16.8523773,11.3611009 L16.8455016,11.2645057 L16.7950399,11.2375464 L16.7308268,11.4172692 L16.6436689,11.4644522 L16.5565146,11.5093821 L16.4647811,11.6352104 L16.3753266,11.7834916 L16.2881722,11.9048135 L16.2056145,11.9856879 L16.0657194,12.06208 L16.0335988,11.9834588 L16.0702915,11.8823606 L16.1505737,11.7318262 L16.1918631,11.6576839 L16.1528738,11.5700534 L16.1047087,11.471205 L16.1047087,11.4150366 L16.0037818,11.3948129 L15.9762614,11.4914081 L15.9510411,11.5970126 L15.8799312,11.6037482 L15.8845279,11.455467 L15.8019492,11.4240254 L15.7308639,11.4599699 L15.643706,11.4959145 L15.5290312,11.5116353 L15.4212286,11.3835778 L15.3753636,11.4240254 L15.3111505,11.4307609 L15.2859091,11.385831 L15.235465,11.3004502 L15.1528862,11.1768751 L15.1001455,11.0735238 L15.2423407,10.8690742 L15.0244636,10.669107 L14.9854708,10.6286802 L14.9281334,10.6601218 L14.8341033,10.6736134 L14.8455757,10.8398686 L14.8042863,10.8578426 L14.7263042,10.8151626 L14.5818124,10.7410202 L14.5336473,10.6556429 L14.4786101,10.541053 L14.4786101,10.4848847 L14.5726401,10.4893877 L14.5726401,10.3343503 L14.6827393,10.464661 L14.795114,10.3882689 L14.7813415,10.0512796 L14.854748,10.0310558 L14.9946431,10.2107786 L15.1139145,10.2355054 L15.2171204,10.300659 L15.3019782,10.2624612 L15.3249019,9.95691008 L15.2377686,9.84457344 L15.2377686,9.70750664 L15.3501468,9.58843448 L15.4808696,9.58618128 L15.5405071,9.62437904 L15.5817754,9.7097564 L15.67353,9.80412248 L15.719395,9.92544784 L15.7583843,10.0108252 L15.7721322,10.453419 L15.7125158,10.5253288 L15.6735265,10.6354157 L15.7606808,10.6960663 L15.8111215,10.8263976 L15.8111215,10.9005365 L15.7767289,10.9229928 L15.7606808,11.0038878 L15.8937037,11.0375792 L15.9372721,11.1319453 L16.070295,11.1925959 L16.1207567,11.1656366 L16.1047087,11.087012 L16.1184566,11.0128731 L16.1918631,11.1117215 L16.1666217,11.1454129 L16.1666217,11.2307937 L16.2927689,11.291465 L16.3225859,11.3318918 L16.3776232,11.2847294 L16.5473387,11.2263079 L16.6689103,11.2060842 L16.6895339,11.0465645 L16.7766883,10.9117509 L17.0679755,10.8623387 L17.251439,10.7118043 L17.2881527,10.608453 L17.221643,10.5725084 L17.1528333,10.6129353 L17.0312617,10.7297749 L16.9739454,10.7387602 L16.9257803,10.6556326 L16.8202778,10.6466473 L16.7170508,10.7320281 L16.5886246,10.8106527 L16.5381629,10.7702258 L16.4624774,10.6983161 L16.418909,10.5769942 L16.3776197,10.4444338 L16.4211881,10.2399842 L16.4624774,10.0040931 L16.6666067,10.1321506 L16.7262231,10.0894498 L16.7583402,9.9793664 C16.7583402,9.9793664 16.6757825,9.84905576 16.6734824,9.84007048 C16.6711858,9.8310852 16.4922979,9.67156552 16.4922979,9.67156552 L16.5427596,9.57945264 L16.7262231,9.5165488 L16.7789849,9.44015672 L16.6918305,9.37948544 L16.5496353,9.3345556 L16.4922979,9.28514344 L16.5542109,9.16156832 L16.5542109,8.95261584 L16.6734824,8.88520904 L16.7276629,8.93464184 L16.7721127,9.07393776 L16.8592706,9.23571064 L16.978521,9.1054 L16.9555762,8.99081016 L16.8546704,8.820052 L16.9257803,8.70097984 L16.9739454,8.68300584 L17.0220894,8.73018888 L17.1092473,8.90317616 L17.2193464,8.93914136 L17.2904318,8.784104 L17.5381294,8.91216144 L17.5725466,8.79534248 L17.4303514,8.66728504 L17.6780491,8.68075264 L17.7009728,8.76164768 L17.7766548,8.80207456 L17.9142744,8.83801912 L17.9555637,8.78635376 L17.856937,8.67849944 L17.8041752,8.5998748 L17.7193174,8.4650612 L17.5610742,8.42911664 L17.5175058,8.36170984 L17.5129091,8.26734376 L17.3500692,8.1999576 L17.2973285,8.10782408 L17.2468669,8.00897568 L17.2950319,7.97751344 L17.5037368,8.0516764 L17.6046426,8.065144 L17.6344631,7.91910912 L17.6642801,7.83147856 L17.556481,7.72587744 L17.5175128,7.6135408 L17.4601754,7.48998632 L17.4555787,7.39337048 L17.5794258,7.44728904 L17.6918005,7.3686644 L17.9142744,7.35517616 L17.9509671,7.3035108 L17.8959298,7.08331984 L17.8798818,6.84517552 L17.9532672,6.71709744 L18.0839899,6.53737464 L17.9463914,6.42726712 L17.9853632,6.36661992 L18.070242,6.22056784 L18.1206826,6.0767896 L18.1665476,5.9105344 L18.3798527,5.96219976 L18.6092023,6.02960656 L18.7445217,6.11048096 L18.799559,6.23405608 L18.7766388,6.34864592 L18.6940601,6.46996784 L18.6825877,6.5553452 L18.7605697,6.57554832 L18.9073616,6.4542264 L18.95093,6.36661992 L18.9899193,6.24754776 L19.0380844,6.1419432 L19.2926543,6.14867872 L19.3499917,6.19586176 L19.391281,6.28349232 L19.3087233,6.34864592 L19.2949544,6.44749432 L19.4394461,6.45199728 L19.5518243,6.32168664 L19.6848437,6.2385556 L19.7261331,6.29022096 L19.7697015,6.24529112 L19.9990546,6.19585832 L20.0839124,6.16216696 L20.7719646,6.1554108 L20.9554491,5.9914088 L21.0632517,5.93974344 L21.2444362,5.90377824 L21.2581841,5.9914088 L21.5678158,6.0093828 L21.5701159,5.83414232 L21.9255916,5.8251536 L22.0104494,5.76 L22.0356943,5.85211288 L22.1687172,5.85436608 L22.2031098,5.81391856 L22.2833919,5.81391856 L22.2971399,5.98467672 L22.2375234,6.0610688 L22.1526656,6.27450704 L22.102204,6.391326 L22.1434933,6.5081656 L22.2512713,6.51938344 L22.2214544,6.62050224 L22.1503691,6.75754496 L22.0586145,6.91706464 L22.0104494,7.020416 L21.904975,7.10580368 L21.7765277,7.1776928 L21.6664496,7.2428464 L21.5036098,7.359686 L21.3912105,7.541662 L21.3132495,7.64951632 L21.1825056,7.71690248 L21.0380103,7.8247568 L20.9417047,7.9573172 L20.7559201,8.02695312 L20.6710623,8.13480744 L20.5540874,8.30554496 L20.3958442,8.44260832 L20.2513524,8.56168048 L20.2674004,8.75714472 L20.177967,8.80207456 L20.0449441,8.80881008 L19.9692587,8.85376056 L19.9096212,8.85598968 L19.8866764,8.77961824 L19.8224633,8.8155628 L19.6917405,8.8290304 L19.5655933,8.71894352 L19.4532186,8.6470544 L19.4738422,8.730182 L19.5541244,8.84477184 L19.6940195,8.912158 L19.7926463,8.95035576 L19.9187935,9.02001576 L20.0655643,9.04472184 L20.1963081,9.08516936 L20.2834625,9.03798632 L20.3430789,8.96159424 L20.4004163,8.92790288 L20.4875742,9.03348336 L20.5586841,9.05370712 L20.6366451,8.99080328 L20.7192239,8.92789944 L20.7444442,8.92789944 L20.6894069,9.03347992 L20.5793288,9.13009576 L20.5196913,9.1750256 L20.4439882,9.27838384 L20.4026988,9.3817352 L20.3522372,9.45139176 L20.2398625,9.33006984 L20.1687772,9.3682676 L19.9761203,9.48733976 L19.7788633,9.52778728 L19.6137479,9.62212928 L19.496773,9.77941984 L19.5174177,9.880518 L19.5770552,9.84905576 L19.677961,9.75246056 L19.7719911,9.63787072 L19.8843657,9.63561752 L19.9921683,9.66930888 L20.0976708,9.68279712 L20.1917009,9.61764352 L20.2673829,9.61539032 L20.1848252,9.72324464 L20.0907951,9.81983984 L20.0036407,9.9254444 L19.9141862,9.98609504 L19.8339251,10.1186554 L19.7926358,10.1905652 L19.69173,10.2107683 L19.5701584,10.1950475 L19.5197178,10.2602011 L19.483004,10.3635525 L19.6733643,10.3613027 L19.769691,10.3118906 L19.8408008,10.3029053 L19.8935416,10.3433322 L19.9852961,10.388262 L20.0816228,10.1905652 L20.1756529,10.1029346 L20.2651074,10.013075 L20.3109759,9.92094144 L20.4004093,9.95913576 L20.4692191,10.0040862 L20.5632492,9.94791792 L20.6870962,9.92992328 L20.9026979,9.70749976 L21.177916,9.70301744 L21.3453314,9.68279368 L21.3682762,9.58617784 L21.4852511,9.52102424 L21.65037,9.49406496 L21.8361547,9.44913512 L22.0219183,9.55248648 L22.1755858,9.6423496 L22.4416351,9.65134864 L22.55861,9.55698256 L22.6549402,9.51655568 L22.7443947,9.55025048 L22.8796931,9.57047424 L23.0471296,9.61315432 L23.16638,9.63788104 L23.3957296,9.63337808 L23.4507915,9.67830792 L23.5012356,9.64461656 L23.6640755,9.64236336 L23.7168372,9.6064188 L23.8062706,9.590698 L23.8406843,9.55025048 L23.9025973,9.56148896 L23.9782828,9.62889576 L24.1617674,9.62664256 L24.3200071,9.55025048 L24.4943193,9.5884448 L24.6342144,9.64686632 L24.7420135,9.74796448 L24.8589884,9.8895136 L24.8956811,10.0108355 L24.9094536,10.1748375 L24.9484218,10.2624681 L24.9461463,10.4354554 L24.8108268,10.5904927 L24.7213688,10.7208034 L24.6319354,10.8690846 L24.5470776,10.9364914 L24.455323,11.1364379 L24.425506,11.2015915 L24.3796375,11.2914753 L24.3360691,11.3588821 L24.333769,11.8149642 L24.2534904,11.9362861 L24.2007496,12.0149107 L24.1548846,12.1025413 L24.1112952,12.2890202 L24.0700269,12.4934698 L24.0264409,12.6282834 L23.909466,12.7496053 L23.7810398,12.8709272 L23.6755373,13.0057202 L23.5929796,13.1787281 L23.5035252,13.3584715 L23.4301398,13.4595697 L23.4553601,13.5471796 L23.4576602,13.6640192 L23.3842537,13.7853411 L23.1434528,13.9448608 L22.9851885,14.0819035 L22.9301512,14.1717873 L22.8774105,14.1358221 L22.6824536,14.1246042 L22.6274128,14.1605488 L22.4920933,14.2122142 L22.2352233,14.2122142 L22.1411932,14.2886062 L21.996698,14.425649 L21.8568029,14.5514773 L21.7879931,14.5604626 L21.7627517,14.6300985 L21.8980712,14.6593075 L22.0265185,14.5964037 L22.148069,14.5582059 L22.2902641,14.4503722 L22.4393526,14.3784625 L22.5769511,14.3065734 L22.6664056,14.2886028 L22.755839,14.3649949 L22.755839,14.4324017 L22.6962226,14.5200116 L22.7191463,14.6368512 L22.833814,14.6997447 L22.9737091,14.726704 L23.1113287,14.7985931 L23.1984831,14.8884769 L23.1870107,14.9626158 L23.1159254,15.0345049 L23.0264709,15.1086438 L22.9370164,15.1535736 L22.8498831,15.1917714 L22.7168392,15.2232336 L22.6297058,15.1917714 L22.5677718,15.1535736 L22.437049,15.1535736 L22.3292499,15.2794019 L22.182458,15.4119623 L22.0838523,15.519796 L21.9898223,15.6635949 L21.799462,15.7489757 L21.6710147,15.7894026 L21.5448675,15.8321033 L21.4416651,15.7894026 L21.2627773,15.753458 L20.9829625,15.757961 L20.7031723,15.7310017 L20.920277,15.9167238 L21.1679746,16.0395422 L21.4171963,15.9841306 L21.7123076,15.9766383 L21.8178101,16.106949 L22.2183993,16.1863304 L22.362122,16.1503858 L22.5563029,16.0725008 L22.6664021,15.9227266 L22.7611836,15.7999083 L22.892679,15.7310086 L23.0715879,15.7519685 L23.2695965,15.8703045 L23.3590299,15.9354581 L23.5448145,15.9938796 L23.725999,16.1511495 L23.8590219,16.2432624 L24.1296433,16.2432624 L24.2397424,16.279207 L24.2764351,16.3690701 L24.3229884,16.4798278 L24.0143434,17.0199834 L23.6919295,17.2437314 L23.9782512,17.717323 L23.9985307,17.8360168 L23.7651393,18.0804735 L23.6077143,18.0033625 L23.2966428,18.3663444 L23.2096816,18.585211 L22.7776179,19.0086337 L22.3919565,19.2037608 L22.4393912,19.4259951 L22.35243,19.5019262 L21.7923721,19.7114704 C21.7326292,19.7177862 21.6694907,19.7256982 21.6694907,19.7256982 L21.421793,19.9623462 L21.2964184,19.8634978 L21.2658253,19.656795 L21.1679711,19.6717797 L21.1373991,19.8515231 L20.9324973,20.0492406 L20.6114143,20.0881745 L20.5747216,20.2379486 L20.467695,20.2679179 L20.4065335,20.3757516 L20.2261216,20.3787616 L20.134367,20.2469374 L20.0976743,20.3308218 L19.9906478,20.360791 L19.9325379,20.3082003 L19.8224598,20.1780376 L19.5472452,19.9923189 L19.4554906,19.9623496 L19.4126983,20.1780376 L19.4769114,20.2918913 L19.479963,20.6663422 L19.268958,20.6843162 L19.1282868,20.4686282 L18.9937399,20.3667698 L18.8469481,20.2409621 L18.6573638,20.1346007 L18.5442131,20.0402346 L18.4616554,20.0911638 L18.2995881,20.1900329 L18.265947,20.2948772 L18.3393324,20.4626219 L18.4402382,20.6483647 L18.4371866,20.8221122 L18.311812,20.792143 L18.2598262,20.5974355 L18.2108886,20.4296667 L18.0885866,20.2499439 L17.9387432,20.0731898 L17.8531128,19.9713555 L17.8164201,19.8694971 L17.8561644,19.6867643 L17.9173259,19.6268498 L17.9968321,19.6687938 L18.0213009,19.812572 L18.0824624,19.9294116 L18.2017128,19.9204263 L18.2628743,19.8275566 L18.0763382,19.4920397 L18.1711408,19.3093069 L18.2506504,19.0636702 L18.3821458,18.9228607 L18.525865,18.7131686 L18.5442131,18.3986322 L18.7521665,18.1140445 L18.9600988,18.0032008 L18.9845676,17.7306083 L18.8989373,17.4729798 L18.782735,17.3501615 L18.6665361,17.2153479 L18.4738793,17.0386145 L18.4708277,16.6821376 L18.4371866,16.4065351 L18.4586038,16.235777 L18.5748062,16.1039734 L18.7307492,16.1369286 L18.8958857,16.1818618 L19.1191146,16.2238058 L19.2047449,16.1429107 L19.0182088,16.1009668 L18.905058,16.056037 L18.7552146,15.9152446 L18.6451365,15.8163962 L18.6420638,15.7295225 L18.5870265,15.7115278 L18.5656303,15.8283674 L18.6176196,15.8942778 L18.5533854,15.9541717 L18.5044688,15.8613226 L18.5013962,15.6606193 L18.4586038,15.5827342 L18.3454531,15.7804276 L18.3790942,15.8972706 L18.3821458,15.9931297 L18.2965154,16.1908471 L18.22313,16.4005392 L18.1222032,16.3945398 L18.070235,16.235777 L18.0579901,16.0860028 L17.9540116,16.0560335 L17.9907254,16.1578885 L17.993777,16.2088177 L17.9540116,16.2477516 L17.9846047,16.4035251 L18.1313965,16.5592986 L18.1405688,16.882841 L18.1222032,16.9217749 L18.0518904,16.8109312 L17.9570878,16.7540267 L17.9081501,16.667153 L17.902047,16.52935 L17.843937,16.4274916 L17.7369105,16.295688 L17.6940936,16.3166479 L17.7307863,16.4484722 L17.7338589,16.5293466 L17.6054117,16.4874026 L17.5197813,16.4095142 L17.4769644,16.2267814 L17.5075539,15.9661635 L17.6635216,15.7175169 L17.7705481,15.5287882 L17.8622781,15.5018289 L17.9784804,15.3490654 L18.1008035,15.1693219 L18.2108816,15.1243921 L18.2598192,15.0584817 L18.0885796,15.0255265 L17.993777,15.0824516 L17.9020435,15.2681738 L17.7735962,15.4269573 L17.6390493,15.5018358 L17.5564705,15.6546199 L17.4708612,15.7714423 L17.3699344,15.8373527 L17.2200909,15.8583126 L17.2476324,16.1698597 L17.2996005,16.4334875 L17.4586163,16.5982463 L17.4861367,16.786975 L17.2965525,16.921768 L17.250684,17.041597 L17.207867,17.1524406 L17.1528297,17.2662737 L17.1895224,17.466977 L17.1191886,17.6467205 L17.0519064,17.8414279 L16.9999172,17.9762415 L16.932656,17.9732522 L16.9112387,18.0451413 L16.9479525,18.1290257 L17.0672029,18.269818 L17.0274621,18.3447171 L16.9448834,18.407621 Z M32.3724796,28.2573076 L32.4,28.4490291 L32.3755312,28.5958139 L32.3327388,28.7455881 L32.2838012,28.9103503 L32.1584266,29.0691338 L32.1584266,29.4316066 L32.0789204,29.5094745 L32.0269312,29.6143429 L31.929077,29.7401506 L31.718072,30.0097537 L31.5529321,30.1954965 L31.4703744,30.1895006 L31.3755717,30.150546 L31.2563213,30.0996374 L31.1462222,30.1385679 L31.1217709,30.2404263 L31.2501971,30.2404263 L31.3449997,30.2793568 L31.4092128,30.429155 L31.4153336,30.5399781 L31.2746659,30.6658064 L31.1340018,30.7556626 L30.9291211,30.761662 L30.822091,30.7287068 L30.6967164,30.7856319 L30.6691749,30.8994615 L30.7242368,31.1001649 L30.7609295,31.2619378 L30.7181126,31.3398262 L30.5590933,31.4746192 L30.3603122,31.5854594 L30.231886,31.5854594 L30.1982449,31.546529 L30.048405,31.5495183 L30.0300569,31.6453774 L29.6814569,31.6693473 L29.5254892,31.8191249 L29.4887965,31.9269792 L29.5866508,31.8970099 L29.7089738,31.87605 L29.7273219,31.8011509 L29.7823627,31.7891762 L30.0208846,31.7592104 L30.1676729,31.8071537 L30.2104653,31.8700575 L30.0117052,31.8970134 L29.9169026,32.0468116 L30.2594029,32.0587862 L30.3633814,31.9629272 L30.4122979,31.9149874 L30.4581875,31.9689266 L30.565214,31.9719125 L30.7058852,32.0857455 L30.745626,32.1756052 L30.8496044,32.2415156 L31.0361406,32.1336819 L31.3174828,32.1216866 L31.5804735,32.109712 L31.7058552,32.073764 L31.7578444,32.1306685 L31.7578444,32.190583 L31.6355214,32.2834526 L31.6813899,32.4661854 L31.6813899,32.8017024 L31.6049318,32.8406363 L31.5101502,32.9364954 L31.3755823,32.9904346 L31.2288115,33.1342128 L30.9688688,33.1462081 L30.7792811,33.3349196 L30.791505,33.4847178 L30.8220945,33.6255067 L30.6661304,33.5925515 L30.4551254,33.538633 L30.2655377,33.6494766 L30.1126216,33.7992508 L29.9597301,33.8262101 L29.6753397,33.8591653 L29.4979794,34.0119529 L29.2716814,34.203671 L29.1157383,34.1347712 L28.7457176,34.0269169 L28.4460307,33.9250791 L28.2655977,33.8801286 L28.0974097,33.9550278 L27.9169977,33.981987 L27.638707,33.9849936 L27.3696132,34.0179282 L27.1983736,34.0928273 L27.0393543,34.203671 L26.9353794,34.1437565 L26.8283493,34.0688574 L26.7671878,33.9310578 L26.6112201,33.9011092 L26.3910429,33.8531694 L26.2962613,33.8921239 L26.3910429,33.9849936 L26.348226,34.0418981 L26.2411994,34.0359022 L26.1005283,33.9340644 L25.9629298,33.8022402 L25.8559033,33.6764325 L25.727456,33.6584585 L25.727456,33.733337 L25.8161344,33.8052502 L25.9048163,33.9130838 L25.9048163,33.9909723 L25.8039105,34.0568827 L25.5653887,34.2096462 L25.4614102,34.2336196 L25.3757799,34.2306302 L25.3054461,34.1946857 L25.0699968,34.221645 L24.8773365,34.2605754 L24.5623566,34.2875347 L24.5379088,34.2546002 L24.4400546,34.2126562 L24.4186373,34.3115046 L24.4339339,34.413363 L24.6265907,34.4343264 L24.6265907,34.5931099 L24.5929496,34.6530244 L24.2840904,34.6679884 L24.2015117,34.5931099 L24.0669647,34.5451666 L23.877377,34.5182108 L23.7214093,34.4882622 L23.5654452,34.5960958 L23.4431432,34.647025 L23.3146959,34.5242067 L23.1679041,34.4223483 L22.9049309,34.2905447 L22.7520148,34.2246343 L22.5716029,34.2006472 L22.4462283,34.2935169 L22.1526656,34.3624166 L21.7979204,34.4822456 L21.5685673,34.6050639 L21.5318746,34.488245 L21.4707131,34.4223346 L21.4646134,34.5361642 L21.4890612,34.6260479 L21.3851038,34.8087807 L21.2903012,35.0244687 L21.2658324,35.1802457 L21.2321912,35.2611201 L21.2750082,35.303064 L21.3025286,35.3629785 L21.2627878,35.4438529 L21.0915271,35.5786665 L21.0028452,35.6805042 L21.0120175,35.863237 L20.950877,35.905181 L20.8438294,35.9111769 L20.7215275,35.884221 L20.602256,35.8272925 L20.5441671,35.7464181 L20.5044018,35.650559 L20.1435534,35.6355744 L20.0640472,35.5756634 L20.0609957,35.4887896 L20.0028822,35.4198898 L19.8530388,35.5367294 L19.7460123,35.4378604 L19.3698919,35.4198864 L19.2659134,35.4917996 L18.7491009,35.4858002 L18.6695947,35.5307335 L18.6115059,35.7703914 L18.5136517,35.8782251 L18.2873502,35.9231584 L18.1650271,36.0340021 L18.1191586,35.941153 L18.0151837,36.1448458 L17.9693152,36.369519 L17.9693152,36.5642265 L17.8317202,36.5762218 L17.7736067,36.72 C17.7328335,36.6850634 17.6920569,36.6501095 17.6512837,36.6151557 L17.6482321,36.5133179 L17.571774,36.4264235 L17.2996076,36.2526794 C17.2496586,36.2317195 17.1997096,36.2107596 17.1497641,36.1897756 C17.1309244,36.2038555 17.1120601,36.2179354 17.0931993,36.2319913 L17.0038537,36.4150199 L16.817019,36.4786806 L16.7276699,36.4150199 L16.7276699,36.2876986 L16.8251378,36.04103 L17.0931958,35.9057623 L17.2556494,35.969423 L17.4018618,35.8898523 L17.5074486,35.802325 L17.824258,35.5079091 L17.8892226,35.4124044 L17.8892226,35.2532631 L18.0922984,35.2532631 L18.1491617,34.8792766 L18.685267,34.600788 L18.685267,34.4416261 L18.8396018,34.3461454 L19.0507999,34.0199096 L19.1239044,33.9801157 L19.1239044,33.6220392 L19.2051312,33.2878466 L19.668132,33.3912806 L19.8305856,33.1764354 L19.8305856,33.0013841 L19.8305856,32.7388054 L20.1798738,32.6671915 L20.5372633,32.6671915 L20.5372633,32.5876002 L20.7484614,32.5398668 L21.032764,32.6273942 L21.2033364,32.6035309 L21.5445058,32.7388054 L22.3405327,32.6671915 L22.470504,32.1022197 L22.6573176,31.9271684 L23.0472104,31.6725258 L23.209664,31.3622 L23.599894,30.8354534 L23.6816791,30.833558 L23.6908514,30.7077503 L23.4672574,30.922513 L23.3509708,30.7565295 L23.3856864,30.4682988 L23.1938864,30.3878234 L22.914781,30.1137346 L22.7178259,30.1564972 L22.4744686,29.851094 L22.4744686,29.722469 L22.4108805,29.5924954 L22.4651909,29.4961926 L22.4101958,29.3716062 L22.7377648,28.7520484 L22.4648468,28.7177034 L22.1946784,28.4732467 L22.300202,28.3459667 L22.5988986,28.2271044 L22.6387693,28.0708665 L22.5225915,28.0247361 L22.3596674,28.0156442 L22.3407609,27.968843 L22.5662442,27.7159686 L22.4950922,27.571179 L22.6538937,27.4263894 L22.3483214,27.1708214 L22.36379,26.9017859 L22.6085239,26.7330918 L22.7243575,26.7728238 L22.8518777,26.7586819 L22.9759636,26.8708087 L23.1024549,26.7657546 L23.1206731,26.5711297 L22.9027502,26.4889687 L22.8027258,26.1091514 L22.6085204,25.7795066 L22.4084716,25.668054 L22.3988463,25.5895979 L22.5145956,25.5488958 L22.5502138,25.5971728 L22.7917872,25.6331174 L23.1189945,25.4743338 L23.1159429,25.3694895 L22.6602919,25.429404 L22.391198,25.0639384 L22.3269639,24.9021655 L22.2138377,24.6745029 L22.5287965,24.1502538 L22.3177916,23.9345658 L22.3392088,23.5032104 L22.40647,23.4223154 L22.5654857,23.4223154 L22.6633399,23.3054964 L22.7275741,23.2305973 L22.6541676,23.0238946 L22.8131834,22.9190502 L22.8865899,22.8321765 L22.8346006,22.6284631 L22.6297199,22.4067998 L22.4951519,22.574548 L22.3972977,22.4427444 L22.3055642,22.3948252 L22.2291061,22.5296147 L22.1587723,22.7273322 L21.9722362,22.9580048 L21.9263712,22.8741204 L21.8438135,22.6853917 L21.9294228,22.5625734 L22.0120015,22.3978146 L21.9814085,22.245027 L21.7979239,22.4307698 L21.7490073,22.4517297 L21.7000697,22.3678453 L21.5838674,22.2270564 L21.5196542,21.9275046 L21.3667627,21.7118166 L21.1374097,21.4481888 L21.1221131,21.3523298 L21.2260881,21.1306424 L21.2169158,20.8640458 L21.4003793,20.603428 L21.6541977,20.0881676 L21.8132134,19.854509 C21.8132134,19.854509 21.8210969,19.8423658 21.8314948,19.8260774 L22.4070845,19.6106853 L22.5748196,19.469432 L22.531511,19.2687493 L22.8425825,19.1115034 L23.3062681,18.6611421 L23.3976996,18.4358806 L23.6393362,18.1538797 L23.7919503,18.2286309 L24.1305212,17.8747409 L24.0978668,17.6861773 L23.8555419,17.2780763 L24.0971821,17.1107272 L24.3892418,16.6085354 L24.4071614,16.6431762 L24.4989125,16.7644981 L24.5034881,16.8453725 L24.6548556,17.0228662 L24.7534824,17.119482 L24.7718305,17.2048628 L24.8543882,17.2520458 L25.0310005,17.3306911 L25.1571477,17.4025802 L25.2488777,17.4744694 L25.2718225,17.6811721 L25.3360321,17.8182148 L25.3773004,17.9732522 L25.3818971,18.0721006 L25.3406077,18.1102949 L25.3452044,18.368663 L25.4346624,18.4540438 L25.4254901,18.5394211 L25.3842007,18.6248019 L25.4277691,18.696691 L25.5057512,18.8022922 L25.5493196,19.1482908 L25.6089536,19.296572 L25.6869392,19.4358679 L25.7351007,19.5639254 L25.8107862,19.6942566 L25.8222586,19.8537557 L25.8658235,20.0874142 L25.9392335,20.2469339 L25.9919707,20.392986 L26.0791286,20.5772118 L26.2006791,20.7951495 L26.3359986,20.9681368 L26.4644458,20.9681368 L26.5355311,21.0692384 L26.7304881,21.1029504 L26.8474419,21.1456305 L26.9460687,21.1883312 L27.0767915,21.2310113 L27.1616703,21.273712 L27.2534073,21.3096531 L27.3589133,21.4354608 L27.4391709,21.4354608 L27.5240498,21.5500506 L27.6134832,21.6960821 L27.6914653,21.8196572 L27.8176125,21.9971474 L27.8703532,22.1207226 L27.8841222,22.2465302 L28.0148449,22.3049518 L28.138692,22.3790941 L28.1363919,22.5296285 L28.2487701,22.58805 L28.3450968,22.6374862 L28.4804163,22.6824161 L28.4918887,22.740817 L28.4047308,22.8127267 L28.3084041,22.9407842 L28.2648357,23.0463853 L28.3084041,23.205905 L28.3450968,23.399116 L28.4827164,23.6642402 L28.6455527,23.8799282 L28.822144,24.1450284 L28.971236,24.3315074 L29.0262733,24.4550825 L28.9459946,24.4258734 L28.8427922,24.3652228 L28.7808757,24.3180398 L28.6799488,24.3674519 L28.5079367,24.3786904 L28.4276756,24.3180398 L28.3175764,24.1764906 L28.2395943,24.0484332 L28.0721788,24.0237065 L27.9162111,24.1046015 L27.7350267,24.1585166 L27.5148459,24.1495314 L27.3612029,24.064154 L27.2167076,24.180973 L27.2189831,24.3449956 C27.2312281,24.3367465 27.243452,24.328518 27.2556969,24.3202689 L27.3772474,24.2775888 L27.4460642,24.3045378 L27.7121065,24.3112733 L27.9185112,24.2663434 L28.1685055,24.2326486 L28.2327186,24.306791 L28.3565657,24.4910167 L28.5308744,24.6370688 L28.6524249,24.7426493 L28.8359095,24.8123093 L28.941412,24.9089045 L29.049211,24.949352 L29.0950796,25.0392117 L29.1868095,25.1762785 L29.2808396,25.3470366 L29.3542496,25.5874307 L29.4024147,25.7514327 L29.4620276,25.9334294 L29.4368073,26.1625884 L29.4046937,26.3468348 L29.2762675,26.4277092 L29.1157242,26.5265576 L28.9781047,26.6186911 L28.9230639,26.7804434 L28.8710746,26.8793124 L28.9138916,27.0021307 L29.0209216,27.1009791 L29.140172,27.1878357 L29.2288539,27.2836947 L29.38177,27.3136606 L29.5010204,27.3556045 L29.56523,27.277716 L29.6141712,27.1878357 L29.7059012,27.1189359 L29.7487181,26.9721511 L29.8251761,26.8103989 L29.9108065,26.780433 L30.0453534,26.7414991 L30.1799003,26.6875634 L30.3083476,26.7055374 L30.3939569,26.7474813 L30.748681,26.7474813 L31.005551,26.7894252 L31.1676394,26.8313691 L31.3266551,26.873313 L31.4275609,26.915257 L31.5865767,26.9362169 L31.8220505,27.1548942 L32.0819685,27.3855669 L32.277677,27.5713097 L32.3235665,27.6971174 L32.3357904,27.9547493 L32.3663589,28.1105228 L32.3724796,28.2573076 Z M21.7612277,25.4503949 L22.0425665,25.752936 L22.2749676,25.9236942 L22.2291026,25.7499466 L22.2077064,25.522284 L22.0303426,25.3305659 L22.2474472,25.186767 L22.4393737,25.4469411 L22.2651281,25.5084586 L22.2936599,25.7428121 L22.5191396,25.8684065 L22.6858493,26.1475453 L22.7989333,26.5792171 L22.9893568,26.6509377 L22.9842018,26.7058229 L22.9793909,26.7098614 L22.8941468,26.6327538 L22.738439,26.6495926 L22.5892628,26.5990866 L22.2441604,26.8364706 L22.2218196,27.2240314 L22.4689589,27.4304382 L22.3445289,27.5435764 L22.419807,27.6964466 L22.1984464,27.9446082 L22.2750975,28.1341762 L22.4858005,28.1402375 L22.4875212,28.1409118 L22.2245691,28.2456288 L22.0262375,28.4853727 L22.4098376,28.8321935 L22.5473272,28.8496997 L22.2740651,29.3668968 L22.3283755,29.489464 L22.2706273,29.5918246 L22.3514046,29.7376222 L22.3514046,29.8928487 L22.6683194,30.291187 L22.8755845,30.2457308 L23.1151598,30.4814327 L23.2523089,30.5437242 L23.2230924,30.7875102 L23.37768,31.0085439 L23.0639467,31.309881 L22.7673114,31.5195731 L22.6388852,31.5555177 L22.3483741,31.5914622 L22.057863,31.7771844 L21.9783534,31.9838837 L21.816265,32.0198317 L21.5288265,32.0587828 L21.2811289,32.028817 L21.0609516,31.7712057 L20.9049839,31.6843319 L20.6542382,31.2859111 L20.3881959,31.2709299 L20.2597487,31.4296894 L19.966186,31.4596586 L19.9600618,31.540533 L19.8346907,31.5165631 L19.7031918,31.4836079 L19.6787441,31.3338303 L19.8071703,31.24696 L19.889749,31.2918864 L20.0028787,31.2799152 L19.9386656,31.133127 L19.8591595,31.0552419 L19.7062645,31.1061711 L19.5625242,30.9953274 L19.6175825,30.9713575 L19.5441761,30.878505 L19.6145099,30.7227315 L19.5686449,30.6508218 L19.4279773,30.8096053 L19.3087233,30.7886247 L19.3637642,30.914453 L19.1221907,30.878505 L18.8133315,30.9923381 L18.7796869,31.1481116 L18.5197478,31.2499666 L18.3332116,31.3368403 L18.1099828,31.2859111 L17.9907289,31.1271276 L18.1864408,31.1151564 L18.2965189,31.0492426 L18.3148635,30.9683682 L18.0824624,30.9683682 L17.9112228,30.9533835 L17.8194682,31.0073193 L17.8194682,30.8874938 L17.8592336,30.8365646 L17.9815601,30.8036094 L17.9540186,30.6148772 L17.9387432,30.4531078 L17.7430347,30.4770777 L17.584019,30.429155 L17.5870706,30.369244 L17.675749,30.366234 L17.8194682,30.237437 L18.0365974,30.1565419 L18.0671659,29.9887938 L18.1833682,30.0067678 L18.3148635,30.057697 L18.5564616,29.8509908 L18.8255554,29.6922279 L19.2016968,29.6053576 L19.46467,29.368689 L19.6879199,29.332741 L20.0028787,29.0122087 L20.0976813,28.7455915 L20.1863633,28.493959 L20.1985871,28.2363305 L20.057916,27.945764 L20.223056,27.712102 L20.1680187,27.595259 L20.0059514,27.2897113 L20.1007329,27.2178222 L20.0365198,27.0590386 L19.9050245,26.8972898 L19.7949464,26.8613453 L19.6236857,26.930245 L19.4432703,26.9631796 L19.2995511,27.0890079 L19.2261446,27.1668964 L19.2383895,27.2777366 L19.1955761,27.3016859 L19.1221907,27.2238009 L18.9784469,27.2088369 L18.874493,27.2777366 L18.7460458,27.3376511 L18.7246496,27.2867219 L18.8133315,27.160897 L18.8622481,27.0530634 L19.0029157,26.945209 L19.1619315,26.8463606 L19.3392953,26.7325276 L19.5044353,26.6276833 L19.5166557,26.5078543 L19.5747691,26.3670448 L19.6053376,26.2412371 L19.7918737,26.1004482 L19.6481545,26.0405338 L19.556421,26.1663414 L19.5136076,26.1663414 L19.4738422,26.1214082 L19.3576399,26.0375238 L19.2567376,25.9596387 L19.1833522,25.7918871 L18.9264577,25.6810469 L18.9784469,25.6211324 L19.1588799,25.6301177 L19.1160665,25.4833294 L19.1252388,25.2586562 L19.3790607,25.192763 L19.663451,25.2257216 L19.9080971,25.6510982 L20.1588429,25.5851878 L20.0242959,25.8458057 L20.1404983,25.8937455 L20.5074463,25.7289867 L20.7643163,25.5132987 L20.9661455,25.6151537 L21.2627843,25.6271283 L21.57164,25.4743442 L21.7612277,25.4503949 Z M19.4921974,21.6983422 L19.5013732,22.0173781 L19.5839379,22.2016107 L19.3683503,22.5386206 L19.0334983,22.8666418 L18.721584,22.8666418 L18.7582802,22.6419686 L18.9738678,22.22857 L19.2215655,21.8331454 L19.4921974,21.6983422 Z M17.5840085,17.020637 L17.8011236,17.1164995 L17.8928641,17.344169 L17.9387362,17.5418796 L17.932619,17.7096381 L18.0243595,17.9552782 L17.8928641,17.9672631 L17.7430242,18.0361629 L17.53814,17.8803894 L17.5014437,17.6527198 L17.3882965,17.4310394 L17.3577175,17.2752693 L17.5840085,17.020637 Z M15.9571513,16.61922 L15.9571513,16.2687322 L16.1803872,16.0680219 L16.0947639,15.9511926 L16.6390863,15.3999911 L16.6390863,15.7355046 L16.38833,16.2028252 L16.2262557,16.4035354 L16.1620391,16.6761382 L15.9571513,16.61922 Z M26.0011465,34.1587377 L26.3084746,34.221645 L26.4185633,34.1812009 L26.487366,34.3968889 L26.3359951,34.4508109 L26.2029757,34.7114322 L25.9690365,34.7428875 L25.7075768,34.5047329 L25.4828169,34.3789149 L26.0011465,34.1587377 Z M15.779791,16.199829 L15.8378904,16.6282087 L15.9816166,16.9936778 L15.8807038,17.2093623 L15.6268889,17.2752693 L15.5749032,17.4400281 L15.431177,17.4250503 L15.3883635,17.3142101 L15.5168003,17.1674253 L15.4801041,17.0625775 L15.3700154,16.9517373 L15.4709318,16.7749935 L15.3883635,16.7030975 L15.2905093,16.8199302 L15.235465,16.984689 L15.0642184,17.1224886 L14.9877673,17.020637 L15.1162041,16.7959638 L15.1223213,16.505387 L15.3455536,16.397543 L15.4128289,16.5443312 L15.6024271,16.289699 L15.779791,16.199829 Z M15.721688,13.5112385 L15.8501213,13.5381978 L16.0427781,13.7134417 L16.2354315,14.0414663 L16.5014773,14.0414663 L16.6390863,14.1807657 L16.7950434,14.3290469 L16.6895445,14.5447349 L16.4831292,14.7289675 L16.3455201,14.6301122 L16.1253429,14.7604229 L15.7904908,14.8592782 L15.3960083,14.9087075 L15.2905093,14.7199822 L15.4235322,14.6435902 L15.5794894,14.7334602 L15.9969061,14.6256162 L16.1345152,14.4638536 L15.8868175,14.5312535 L15.6987538,14.5761902 L15.6345337,14.4818276 L15.7675566,14.279621 L16.1115809,14.117855 L16.0152542,14.0504516 L15.7813185,14.1493103 L15.6070133,14.014507 L15.3684879,13.8931817 L15.4785765,13.726923 L15.721688,13.5112385 Z M14.9923535,13.3944058 L15.1116179,13.3764318 L15.1116179,13.4887684 L14.9418988,13.7583784 L14.6804392,13.726923 L14.9923535,13.3944058 Z M15.1116179,12.1721841 L15.3340848,11.9520034 L15.5198589,12.0418734 L15.5565551,12.3249614 L15.3776602,12.437298 L15.1116179,12.1721841 Z M13.111685,10.7073117 L13.4052547,10.7477523 L13.5474498,11.1341916 L13.3914927,11.3903202 L13.3639723,11.6329675 L13.4190166,11.7992262 L13.1483812,11.7228341 L13.0566407,11.2465282 L13.111685,11.0802696 L13.111685,10.7073117 Z M13.111685,10.523079 L13.1988394,10.3388464 L13.1529673,10.2579651 L13.1759051,10.0422771 L12.854815,9.89848512 L12.9327936,9.67381184 L13.3869066,9.6872932 L13.5474498,9.5614752 L13.6070803,9.6333712 L13.7401032,9.66482656 L13.6070803,9.85355184 L13.703407,9.92544784 L13.6621246,10.2310024 L13.446537,10.4466904 L13.5474498,10.680349 L13.111685,10.523079 Z M15.5060969,6.33516456 L15.6528818,6.59578584 L15.6528818,6.97772904 L15.2859232,7.38214232 L15.3272055,7.5888416 L15.097856,7.93484024 L15.249227,8.03369552 L15.2905093,8.2583688 L15.0519875,8.32127952 L15.0473978,8.5459528 L14.7997001,8.51899008 L14.7446558,8.60886008 L14.6231018,8.60436744 L14.6231018,8.78410744 L14.4786101,8.70771536 L14.4373277,8.74366336 L14.4786101,8.86049608 L14.4786101,9.00428464 L14.308891,9.053714 L14.1024756,9.32332056 L14.0244971,9.36376464 L13.8272576,9.14807664 L13.8914742,8.99529936 L14.0199109,8.85150736 L14.1208238,8.70322272 L14.2263262,8.75265208 L14.2951325,8.70771536 L14.1391719,8.55044544 L13.9098223,8.5279788 L13.8180853,8.28982416 L13.9235843,8.15502088 L13.7401032,8.00673624 L13.7401032,7.81351488 L13.8731296,7.42707904 L14.2446743,7.65624496 L14.2767844,7.42258296 L14.5657644,7.65624496 L14.4143934,7.28777968 L14.8960268,6.9372884 L15.0107016,6.79349984 L15.3042713,6.58230448 L15.5060969,6.33516456 Z M13.4623041,19.3548078 L13.8928121,19.4741654 L14.112129,18.9330775 L14.1933558,19.028565 L14.4786101,19.0126482 L14.7538316,18.8216766 L14.9877673,18.8216766 L15.094987,18.6864054 L15.2980593,18.7739328 L15.7204449,18.8535069 L15.8260422,18.8455502 L15.9816166,18.9649078 L15.9571513,19.4264217 L16.150953,19.4264217 L16.150953,19.720841 L16.2981206,19.8481554 L16.5652163,20.2619289 L16.6390863,20.1664414 L16.7764109,20.3574164 L16.2981206,20.8428038 L16.3540252,20.9542048 L16.5895868,20.7791466 L17.0931993,20.8587173 L17.2556564,21.5271196 L17.1338144,21.8533658 L17.0444618,21.8215354 L17.011969,21.6623942 L17.0931993,21.4395922 L16.7926556,21.0894759 L16.7357957,21.1610898 L16.7601627,21.3520614 L16.8576377,21.6464807 L16.7114288,21.8215354 L16.7845332,21.9011095 L16.9307422,21.8215354 L17.0363395,21.9647667 L16.8251449,22.3228398 L16.5002342,22.3228398 L16.3458994,22.4342407 L16.2484279,22.784357 L15.9884958,23.0310291 L15.8422869,22.8666418 L15.6067253,22.7764003 L15.3363778,22.7498126 L15.2629889,22.9340452 L15.0519875,22.8666418 L14.781352,23.0014486 L14.7263077,22.5925392 L14.3685214,22.4352693 L14.1850439,21.7971974 L13.886888,21.6623942 L13.5612118,21.9454821 L13.6667108,22.354388 L13.4327751,22.4577359 L13.3410381,22.7273459 L13.1208608,22.5925392 L12.7217921,22.6599426 L12.4786806,22.4352693 L12.1438286,22.4172953 L12.1208943,22.120726 L11.52,21.5770168 L11.8548485,21.2085515 L12.1530044,21.2400069 L12.4970287,21.0063449 L12.1530044,20.9434376 L12.0199815,20.673831 L12.2585033,20.5255464 L12.4465705,20.6603497 L12.8318808,20.5075724 L13.1162711,19.5145132 L13.4623041,19.3548078 Z" fill="#FFFFFF" fill-rule="evenodd"></path>
            </g>
        </g>
    </g>
</svg>