<?xml version="1.0" encoding="UTF-8"?>
<svg width="44px" height="44px" viewBox="0 0 44 44" version="1.1" xmlns="http://www.w3.org/2000/svg" xmlns:xlink="http://www.w3.org/1999/xlink">
    <!-- Generator: sketchtool 52.6 (67491) - http://www.bohemiancoding.com/sketch -->
    <title>286DC4DC-5B56-42D7-872A-072E9DB1DB13</title>
    <desc>Created with sketchtool.</desc>
    <g id="Page-1" stroke="none" stroke-width="1" fill="none" fill-rule="evenodd">
        <g id="190111_corpwebs_about" transform="translate(-566.000000, -829.000000)" fill-rule="nonzero">
            <g id="Group" transform="translate(136.000000, 446.000000)">
                <g id="icDistributionCentres" transform="translate(430.000000, 383.000000)">
                    <rect id="Rectangle" fill="#014899" x="0" y="0" width="43.2" height="43.2" rx="4.32"></rect>
                    <path d="M12.1721683,21.5062607 C12.1721683,23.0281914 10.8978341,24.2627574 9.32608416,24.2627574 C7.75433418,24.2627574 6.48,23.028536 6.48,21.5062607 C6.48,19.9839854 7.75433418,18.749764 9.32608416,18.749764 C10.8978341,18.749764 12.1721683,19.9839854 12.1721683,21.5062607 Z M9.32608416,23.2290711 C10.3069159,23.2290711 11.1048868,22.4562184 11.1048868,21.5062607 C11.1048868,20.556303 10.3069159,19.7834502 9.32608416,19.7834502 C8.34525241,19.7834502 7.54728156,20.556303 7.54728156,21.5062607 C7.54728156,22.4562184 8.34525241,23.2290711 9.32608416,23.2290711 Z M26.2271992,16.1190325 C24.6554492,16.1190325 23.381115,14.8848111 23.381115,13.3625358 C23.381115,11.8395713 24.6554492,10.6060391 26.2271992,10.6060391 C27.7989492,10.6060391 29.0732834,11.8395713 29.0732834,13.3625358 C29.0732834,14.8848111 27.7989492,16.1190325 26.2271992,16.1190325 Z M26.2271992,11.6397253 C25.2463675,11.6397253 24.4483966,12.4125781 24.4483966,13.3625358 C24.4483966,14.3124934 25.2463675,15.0853462 26.2271992,15.0853462 C27.208031,15.0853462 28.0060018,14.3124934 28.0060018,13.3625358 C28.0060018,12.4125781 27.208031,11.6397253 26.2271992,11.6397253 Z M25.8728617,28.5387729 C27.4446117,28.5387729 28.7189459,29.7729943 28.7189459,31.2952696 C28.7189459,32.8175449 27.4446117,34.0517663 25.8728617,34.0517663 C24.3011118,34.0517663 23.0267776,32.8175449 23.0267776,31.2952696 C23.0267776,29.7729943 24.3011118,28.5387729 25.8728617,28.5387729 Z M25.8728617,33.01808 C26.8536935,33.01808 27.6516643,32.2452272 27.6516643,31.2952696 C27.6516643,30.3453119 26.8536935,29.5724591 25.8728617,29.5724591 C24.89203,29.5724591 24.0940591,30.3453119 24.0940591,31.2952696 C24.0940591,32.2452272 24.89203,33.01808 25.8728617,33.01808 Z M32.8062785,18.4052019 C34.9678794,18.4052019 36.72,20.1025147 36.72,22.1953849 C36.72,24.288255 34.9682352,25.9855678 32.8066343,25.9855678 C30.826827,25.9855678 29.1945977,24.5601145 28.9338252,22.712228 L25.3061352,22.712228 C25.0396706,25.1331212 22.9257416,27.0192541 20.3550161,27.0192541 C19.5150655,27.0192541 18.7242098,26.8156179 18.0301211,26.4600298 L15.998017,29.3822609 C17.4367125,30.6216507 17.749426,32.7276142 16.6479914,34.319491 C15.4440978,36.0588404 13.0131862,36.5229655 11.2180186,35.3580011 C9.42285103,34.1923476 8.94221856,31.8376103 10.1464679,30.0986054 C11.2493255,28.5060395 13.3813983,27.9864398 15.1114617,28.8064976 L17.1453446,25.8815101 C16.0631211,24.9966746 15.374013,23.6745899 15.374013,22.1953849 C15.374013,20.3302703 16.4683324,18.7156523 18.0678317,17.9135118 L16.7454698,14.6687706 C14.8731022,15.1160122 12.9011216,14.1684665 12.1728798,12.3836349 C11.3784666,10.43617 12.3657021,8.23407366 14.375749,7.46570021 C16.3854402,6.69732676 18.6587499,7.6521083 19.4528074,9.59957321 C20.1785588,11.3802701 19.4118949,13.3721835 17.7369744,14.2873404 L19.0632496,17.5410402 C19.4755761,17.4342259 19.9071136,17.3715156 20.3546603,17.3715156 C22.9253858,17.3715156 25.0393148,19.2579931 25.3057795,21.6785417 L28.9334695,21.6785417 C29.1945977,19.8306553 30.826827,18.4052019 32.8062785,18.4052019 Z" id="Combined-Shape" fill="#FFFFFF"></path>
                </g>
            </g>
        </g>
    </g>
</svg>