<?xml version="1.0" encoding="UTF-8"?>
<svg width="44px" height="44px" viewBox="0 0 44 44" version="1.1" xmlns="http://www.w3.org/2000/svg" xmlns:xlink="http://www.w3.org/1999/xlink">
    <!-- Generator: sketchtool 52.6 (67491) - http://www.bohemiancoding.com/sketch -->
    <title>CAEB13A3-D01E-4E26-A72E-110585EC3307</title>
    <desc>Created with sketchtool.</desc>
    <g id="Page-1" stroke="none" stroke-width="1" fill="none" fill-rule="evenodd">
        <g id="190111_corpwebs_about" transform="translate(-566.000000, -653.000000)">
            <g id="Group" transform="translate(136.000000, 446.000000)">
                <g id="icRegionalHubs" transform="translate(430.000000, 207.000000)">
                    <rect id="Rectangle" fill="#014899" fill-rule="nonzero" x="0" y="0" width="43.2" height="43.2" rx="4.32"></rect>
                    <path d="M21.429648,23.5826133 C24.161328,23.5826133 26.379936,21.3482133 26.379936,18.6000533 C26.379936,15.8468267 24.161328,13.6215467 21.429648,13.6215467 C18.689904,13.6215467 16.47432,15.8468267 16.47432,18.6000533 C16.47432,21.3482133 18.689904,23.5826133 21.429648,23.5826133 M31.338288,18.6000533 C31.338288,25.8504533 22.949712,34.3624533 22.59288,34.7211733 C22.276368,35.03632 21.847968,35.1994667 21.429648,35.1994667 C20.998224,35.1994667 20.577888,35.03632 20.25432,34.7211733 C19.89648,34.3624533 11.52,25.8504533 11.52,18.6000533 C11.52,13.1108267 15.963264,8.64 21.429648,8.64 C26.894016,8.64 31.338288,13.1108267 31.338288,18.6000533" id="Fill-1" fill="#FFFFFF" fill-rule="evenodd"></path>
                </g>
            </g>
        </g>
    </g>
</svg>