<?xml version="1.0" encoding="UTF-8"?>
<svg width="44px" height="44px" viewBox="0 0 44 44" version="1.1" xmlns="http://www.w3.org/2000/svg" xmlns:xlink="http://www.w3.org/1999/xlink">
    <!-- Generator: sketchtool 52.6 (67491) - http://www.bohemiancoding.com/sketch -->
    <title>293988BC-F697-4303-AE41-64B0D19AD3A9</title>
    <desc>Created with sketchtool.</desc>
    <g id="Page-1" stroke="none" stroke-width="1" fill="none" fill-rule="evenodd">
        <g id="190111_corpwebs_about" transform="translate(-260.000000, -478.000000)">
            <g id="Group" transform="translate(136.000000, 446.000000)">
                <g id="icStockedParts" transform="translate(124.000000, 32.000000)">
                    <rect id="Rectangle" fill="#014899" fill-rule="nonzero" x="0" y="0" width="43.2" height="43.2" rx="4.32"></rect>
                    <path d="M23.9921909,13.8458002 C27.4901567,14.8485115 29.9772424,18.1241711 29.9772424,21.828689 C29.9772424,22.5148621 29.8940052,23.1959297 29.7285338,23.8575966 C28.0306967,23.0162177 26.5244052,21.5468679 25.4493424,19.6711239 C24.3762852,17.7974221 23.8668338,15.7501348 23.9921909,13.8458002 M21.7387709,26.1448402 C23.8888967,26.1448402 25.9046395,26.7237988 27.4771195,27.7836911 C25.9457567,29.2806104 23.8828795,30.129137 21.7387709,30.129137 C19.5946624,30.129137 17.5317852,29.2806104 16.0004224,27.7836911 C17.5729024,26.7237988 19.5886452,26.1448402 21.7387709,26.1448402 M19.4853509,13.8458002 C19.6117109,15.7501348 19.1022595,17.7974221 18.0281995,19.6711239 C16.9531367,21.5468679 15.4468452,23.0162177 13.7480052,23.8586177 C13.5835367,23.1959297 13.4982938,22.5148621 13.4982938,21.828689 C13.4982938,18.1241711 15.9873852,14.8485115 19.4853509,13.8458002 M21.7387709,24.1363544 C20.4731652,24.1363544 19.4482452,23.1030104 19.4482452,21.828689 C19.4482452,20.5543675 20.4731652,19.5220446 21.7387709,19.5220446 C23.0043767,19.5220446 24.0292967,20.5543675 24.0292967,21.828689 C24.0292967,23.1030104 23.0043767,24.1363544 21.7387709,24.1363544 M17.8346481,24.0995951 C18.0713224,24.5100737 17.9309224,25.0359355 17.5227595,25.2738497 C17.1145967,25.5107428 16.5921081,25.3698322 16.3564367,24.9583326 C16.1217681,24.5488751 16.2621681,24.0219922 16.6693281,23.7850991 C17.0774909,23.5482061 17.5999795,23.6880955 17.8346481,24.0995951 M27.1211052,24.9593537 C26.8854338,25.3698322 26.3629452,25.5107428 25.9557852,25.2738497 C25.5476224,25.0359355 25.4072224,24.5100737 25.6428938,24.0995951 C25.8785652,23.6891166 26.4010538,23.5482061 26.8092167,23.7861202 C27.2173795,24.0230133 27.3567767,24.5488751 27.1211052,24.9593537 M21.7387709,17.2889188 C21.2674281,17.2889188 20.8853395,16.9039675 20.8853395,16.4291602 C20.8853395,15.9553741 21.2674281,15.5694017 21.7387709,15.5694017 C22.2101138,15.5694017 22.5922024,15.9553741 22.5922024,16.4291602 C22.5922024,16.9039675 22.2101138,17.2889188 21.7387709,17.2889188 M21.7387709,14.1919501 C21.5061081,14.1919501 21.3165681,14.0020271 21.3165681,13.7671762 C21.3165681,13.5333464 21.5061081,13.3413813 21.7387709,13.3413813 C21.9724367,13.3413813 22.1609738,13.5333464 22.1609738,13.7671762 C22.1609738,14.0020271 21.9724367,14.1919501 21.7387709,14.1919501 M14.5964224,25.4913421 C14.7989995,25.3739166 15.0567338,25.4433508 15.1730652,25.6465479 C15.2903995,25.849745 15.2201995,26.1101231 15.0186252,26.2275486 C14.8170509,26.3449741 14.5593167,26.2755399 14.4419824,26.0723428 C14.3256509,25.8691457 14.3948481,25.6087675 14.5964224,25.4913421 M29.0365624,26.0723428 C28.9192281,26.276561 28.6614938,26.3459951 28.4599195,26.2285697 C28.2573424,26.1111442 28.1881452,25.8507661 28.3044767,25.647569 C28.4218109,25.4433508 28.6785424,25.3749377 28.8811195,25.4923631 C29.0836967,25.6097886 29.1528938,25.8691457 29.0365624,26.0723428 M35.5170252,22.7068271 C35.5531281,22.1125522 35.5641595,21.5182773 35.5110081,20.9260446 C34.7197538,20.885201 33.9295024,20.8596737 33.1412567,20.8494628 C33.1001395,20.3766977 33.0339509,19.8998482 32.9326624,19.4219777 C32.9156138,19.3453959 32.8955567,19.2698351 32.8775052,19.1932533 C33.6236309,18.9359384 34.3667481,18.6643282 35.1048509,18.3763806 C34.9704681,17.7984431 34.7849395,17.2368431 34.5602995,16.6864751 C33.7941167,16.8917144 33.0359567,17.111249 32.2818081,17.3460999 C32.0641881,16.8253435 31.8104652,16.3260301 31.5246509,15.8512228 C32.1554481,15.3753944 32.7782224,14.8852708 33.3919709,14.3808519 C33.0941224,13.865201 32.7180509,13.4077522 32.3560195,12.9380504 C31.6951367,13.3699719 31.0382652,13.8192519 30.3904195,14.2818061 C30.0253795,13.8570322 29.6302538,13.4618701 29.2090538,13.0973406 C29.6633481,12.4469057 30.1066109,11.7862599 30.5358338,11.1143821 C30.0855509,10.7324941 29.5971595,10.3965551 29.1087681,10.0698061 C28.6083424,10.6916504 28.1219567,11.3216635 27.6486081,11.9608664 C27.1732538,11.6708766 26.6768395,11.416625 26.1633767,11.2001537 C26.3980452,10.4343355 26.6186738,9.66443296 26.8212509,8.89453042 C26.2636624,8.7056286 25.7171052,8.47486205 25.1384567,8.35437333 C24.8536452,9.0987486 24.5838767,9.84720823 24.3311567,10.5987311 C23.7926224,10.473137 23.2430567,10.3843021 22.6844652,10.338353 C22.6734338,9.54292314 22.6433481,8.74953551 22.5992224,7.95104242 C22.0095424,7.91428314 21.4208652,7.90305114 20.8321881,7.95716896 C20.7910709,8.75464096 20.7659995,9.54904969 20.7569738,10.3434584 C20.2866338,10.3843021 19.8132852,10.4527151 19.3399367,10.5538031 C19.2627167,10.5711617 19.1875024,10.5915835 19.1122881,10.6099631 C18.8565595,9.85741914 18.5867909,9.1099806 18.3009767,8.36560533 C17.7283452,8.50141042 17.1697538,8.68827005 16.6231967,8.91393114 C16.8267767,9.68689696 17.0443967,10.450673 17.2780624,11.2093435 C16.7605881,11.4288781 16.2651767,11.6841508 15.7938338,11.9720984 C15.3214881,11.3369799 14.8340995,10.7100301 14.3336738,10.091249 C13.8232195,10.3914497 13.3669195,10.7712955 12.9015938,11.1337828 C13.3308167,11.8005551 13.7760852,12.4622221 14.2363967,13.1146991 C13.8141938,13.483313 13.4220767,13.8805173 13.0600452,14.3042701 C12.4142052,13.8468213 11.7583367,13.4016257 11.0904338,12.9686831 C10.7123567,13.4210264 10.3784052,13.9131922 10.0534795,14.4063791 C10.6712395,14.909777 11.2970224,15.3988795 11.9308281,15.8767501 C11.6440109,16.3546206 11.3912909,16.8549551 11.1756767,17.3726482 C10.4165138,17.1357551 9.65233666,16.9141784 8.88715666,16.7089391 C8.69962237,17.2715602 8.46996809,17.8209071 8.35163094,18.4049711 C9.0897338,18.6918977 9.8338538,18.9624868 10.5789767,19.2187806 C10.4546224,19.7599588 10.3663709,20.3133901 10.3202395,20.8760111 C9.53099094,20.8882642 8.74374809,20.9178759 7.95048809,20.9628039 C7.91438523,21.5560577 7.9033538,22.1493115 7.95650523,22.7425653 C8.74775952,22.783409 9.53700809,22.8089362 10.3262567,22.8181261 C10.3673738,23.2929333 10.4335624,23.7687617 10.5348509,24.2456111 C10.5508967,24.3232141 10.5719567,24.3987748 10.5890052,24.4753566 C9.84388237,24.7316504 9.10176809,25.0042817 8.36266237,25.2922293 C8.49704523,25.8691457 8.6825738,26.4317668 8.9072138,26.9821348 C9.67439952,26.7768955 10.4315567,26.5563399 11.1857052,26.3225101 C11.4033252,26.8432664 11.6560452,27.3425799 11.9428624,27.8163661 C11.3120652,28.2932155 10.6892909,28.7833391 10.0755424,29.286737 C10.3733909,29.8023879 10.7494624,30.2608577 11.1114938,30.7305595 C11.7723767,30.2986381 12.4282452,29.8493581 13.0770938,29.3868039 C13.4431367,29.8115777 13.8372595,30.2057188 14.2574567,30.5702482 C13.8031624,31.2217042 13.3619052,31.8833711 12.9326824,32.5542279 C13.3819624,32.9350948 13.8703538,33.2710337 14.3587452,33.5988039 C14.8591709,32.9769595 15.3465595,32.3469464 15.8189052,31.7077435 C16.2952624,31.9967122 16.7906738,32.251985 17.3041367,32.4694773 C17.0694681,33.2342744 16.8488395,34.0031559 16.6462624,34.7740795 C17.2038509,34.9629813 17.7494052,35.1937479 18.3290567,35.3132155 C18.6138681,34.5688402 18.8836367,33.8214017 19.1363567,33.0698788 C19.6748909,33.195473 20.2244567,33.2843079 20.7820452,33.330257 C20.7950824,34.1256868 20.8241652,34.9180533 20.8682909,35.7175675 C21.4579709,35.7543268 22.0476509,35.7645377 22.6343224,35.7104199 C22.6764424,34.9149901 22.7015138,34.1185391 22.7115424,33.3241304 C23.1818824,33.2832868 23.6542281,33.2158948 24.1275767,33.1137857 C24.2047967,33.0984693 24.2790081,33.0780475 24.3562281,33.0586468 C24.6109538,33.8111908 24.8807224,34.5586293 25.1665367,35.3030046 C25.7391681,35.1671995 26.2977595,34.9803399 26.8443167,34.7536577 C26.6397338,33.981713 26.4231167,33.217937 26.1904538,32.4592664 C26.7069252,32.2397319 27.2023367,31.9844591 27.6726767,31.6965115 C28.1460252,32.3326511 28.6334138,32.959601 29.1328367,33.577361 C29.6442938,33.2771602 30.0995909,32.8983355 30.5659195,32.5338061 C30.1366967,31.8680548 29.6914281,31.2063879 29.2321195,30.5539108 C29.6533195,30.185297 30.0454367,29.7880926 30.4074681,29.3643399 C31.0533081,29.8217886 31.7101795,30.2659631 32.3770795,30.6989057 C32.7541538,30.2465624 33.0891081,29.7554177 33.4140338,29.2622308 C32.7962738,28.7578119 32.1704909,28.2687093 31.5366852,27.7918599 C31.8235024,27.3129682 32.0762224,26.8136548 32.2918367,26.2959617 C33.0509995,26.5328548 33.8151767,26.7554526 34.5803567,26.9586497 C34.7678909,26.3960286 34.9965424,25.8466817 35.1158824,25.2636388 C34.3767767,24.9767122 33.6346624,24.7051021 32.8875338,24.4498293 C33.0138938,23.9076301 33.1011424,23.3541988 33.1472738,22.7925988 C33.9365224,22.7793246 34.7237652,22.7507341 35.5170252,22.7068271" id="Fill-1" fill="#FFFFFF" fill-rule="evenodd"></path>
                </g>
            </g>
        </g>
    </g>
</svg>