<?xml version="1.0" encoding="UTF-8"?>
<svg width="44px" height="44px" viewBox="0 0 44 44" version="1.1" xmlns="http://www.w3.org/2000/svg" xmlns:xlink="http://www.w3.org/1999/xlink">
    <!-- Generator: sketchtool 52.6 (67491) - http://www.bohemiancoding.com/sketch -->
    <title>3B5898F2-1C38-40FA-9CE3-1F6346A3B4BB</title>
    <desc>Created with sketchtool.</desc>
    <g id="Page-1" stroke="none" stroke-width="1" fill="none" fill-rule="evenodd">
        <g id="190111_corpwebs_about" transform="translate(-260.000000, -653.000000)">
            <g id="Group" transform="translate(136.000000, 446.000000)">
                <g id="icDeliveries" transform="translate(124.000000, 207.000000)">
                    <rect id="Rectangle" fill="#014899" fill-rule="nonzero" x="0" y="0" width="43.2" height="43.2" rx="4.32"></rect>
                    <path d="M37.3906693,23.6842095 C37.3021563,22.5915386 36.7519872,21.9197352 35.6967733,21.7048991 C35.5648715,21.6793652 35.3965232,21.7506838 35.2463982,21.7762176 C35.3080102,21.8880381 35.3383823,22.0465238 35.4355731,22.1055157 C36.0464864,22.48324 36.2964055,23.0837247 36.2608268,23.8198028 C36.2408679,24.2635628 36.3901252,24.4088414 36.7485161,24.330479 C37.4297192,24.3295985 37.441868,24.3031842 37.3906693,23.6842095 Z M25.7468695,21.6934529 C25.340751,21.726911 25.0734764,21.9787271 24.9797568,22.3634952 C24.8912438,22.7385781 25.0422366,23.0449838 25.3988919,23.09341 C25.8405892,23.1541628 26.310923,23.1524019 26.7734469,23.1048562 C27.1379122,23.0678762 27.4572533,22.6769447 27.4494433,22.3450052 C27.4425011,21.9664005 27.2663429,21.7154648 26.865431,21.6916919 C26.6736528,21.6820067 26.4792713,21.6890505 26.284022,21.6890505 C26.1043927,21.6908114 25.9273667,21.6793652 25.7468695,21.6934529 Z M13.8644318,19.8558991 C12.5827287,19.8558991 11.3018933,19.8523772 10.0184547,19.8567796 C9.43531013,19.859421 9.09514248,20.1085958 9.01877831,20.5717262 C8.94241415,21.0374981 9.20534985,21.31837 9.77461,21.3192505 C12.365785,21.3262943 14.9586955,21.3236529 17.5533416,21.320131 C17.9212781,21.320131 18.2978923,21.1986253 18.4271907,20.8059329 C18.5061582,20.5664434 18.4584306,20.2362648 18.3308677,20.0487234 C18.2328092,19.9025643 17.9316914,19.8664648 17.7078055,19.8638234 L13.8644318,19.8558991 Z M31.4030245,19.1594424 C30.5881841,18.0130625 29.7690049,16.8702044 28.9428834,15.7317487 C28.4482519,15.0502602 27.8173798,14.6020978 26.8515466,14.6602092 C26.299642,14.6945478 25.7555473,14.6399583 25.2045104,14.6381973 C24.9216159,14.6373168 24.7523998,14.7896392 24.7107466,15.0890011 C24.5371917,16.3251897 24.5510761,17.5279201 24.8547972,18.6637344 C24.9033926,18.8477539 25.1819483,19.0062396 25.3962886,19.0441001 C26.8931998,19.3108843 28.4013921,19.5521348 29.9113199,19.7828196 C30.4944644,19.8726281 31.0906256,19.9192934 31.6824479,19.9844486 C31.7145556,19.9369029 31.7466632,19.8902377 31.7805064,19.8444529 C31.6555469,19.6137681 31.5514139,19.3707567 31.4030245,19.1594424 Z M12.1583869,23.8911214 C10.6649468,23.8576633 8.49117135,24.8737328 8.01736641,27.6930175 C7.35959325,27.5266075 6.70702674,27.3681218 6.05793133,27.1999508 C5.76722684,27.1251104 5.7377225,26.8917842 5.77069793,26.6100318 C6.2913627,22.2974595 7.24678255,18.0201063 8.81051241,13.7973426 C9.06997701,13.0956031 9.23832529,12.9652926 9.92907388,12.9652926 C15.2736977,12.9652926 20.6157182,12.9740973 25.9629454,12.9600097 C27.5249397,12.9573683 28.7910229,13.4926978 29.710864,14.5853687 C31.1808742,16.331353 32.5797268,18.139851 34.0176294,19.9157715 C34.1434567,20.0698548 34.3161438,20.1957629 34.4983765,20.2855715 C35.2915225,20.6773834 36.1063629,21.0366176 36.89517,21.4354733 C37.5737697,21.7779786 38.1265422,22.2992205 38.1508399,23.1180633 C38.1864186,24.2257023 38.1143933,25.3597556 38.0033182,26.4876456 C37.9521195,27.008007 37.6353817,27.507237 37.0557083,27.7176708 C36.3198354,27.9862161 35.5926403,28.0135108 34.866313,27.9553994 C35.4885073,25.717229 34.2371764,23.9870933 32.2152615,23.8964042 C31.3405447,23.8576633 30.4892578,24.1341328 29.737765,24.7328566 C28.5697404,25.661759 28.0456045,26.8486408 28.0933321,28.2151399 L14.7565041,28.2151399 C15.6121298,25.4020185 13.8522829,23.9298623 12.1583869,23.8911214 Z M31.3738672,28.68505 C32.0915168,28.6744843 32.7805299,28.0599119 32.8811917,27.3405629 C32.9801181,26.634421 32.4880898,26.0559481 31.7851924,26.0497848 C31.0493195,26.0436215 30.3880753,26.6168115 30.2717935,27.3608138 C30.158115,28.0968919 30.6553499,28.6956157 31.3738672,28.68505 Z M34.4180206,27.2947781 C34.1733081,28.9324638 32.730199,30.2302857 31.1413036,30.2399709 C29.5628216,30.2470147 28.4859133,28.9738462 28.7254191,27.3819453 C28.9675282,25.7733153 30.4071663,24.4992663 31.9934583,24.4887006 C33.5632626,24.4798958 34.6488486,25.7354548 34.4180206,27.2947781 Z M11.6938671,26.0504892 C10.9892341,26.0663378 10.3245188,26.6562568 10.2160469,27.3623987 C10.104104,28.0808672 10.6221655,28.6936787 11.3311373,28.6839934 C12.0574647,28.6743082 12.7169734,28.0817477 12.8254452,27.3395063 C12.9330493,26.6007868 12.4349466,26.0337601 11.6938671,26.0504892 Z M11.9750261,24.4885245 C13.5587148,24.4902854 14.6139287,25.7590516 14.3631418,27.3641596 C14.1140905,28.9613434 12.6501547,30.2415558 11.0751438,30.2397948 C9.50447176,30.2371534 8.43884454,28.9516582 8.68702808,27.3562354 C8.93781494,25.7546492 10.3896019,24.487644 11.9750261,24.4885245 Z" id="Combined-Shape" fill="#FFFFFF" fill-rule="evenodd"></path>
                </g>
            </g>
        </g>
    </g>
</svg>